# xmcd
# 
# Track frame offsets:
#     150
#     11003
#     20736
#     31683
#     40924
#     51387
#     61795
#     71554
#     82092
#     90186
#     101074
#     110899
#     120868
#     142239
#     153992
#     166044
#     177634
#     187987
#     196931
#     206503
#     215101
#     227031
# 
# Disc length: 3160
# 
# Revision: 0
# Processed by: cddbd v1.5.2PL0 Copyright (c) Steve Scherf et al.
# Submitted via: fre:ac v1.0.31
# 
DISCID=320c5616
DTITLE=Roy Buchanan - After Hours
DYEAR=0
DGENRE=Blues
TTITLE0=MULE TRAIN STOMP
TTITLE1=TEEN QUEEN OF THE WEEK
TTITLE2=I GOT A HEART
TTITLE3=I TAKE A TRIP TO THE MOON
TTITLE4=MARY LOU
TTITLE5=I WANT TO LOVE YOU
TTITLE6=TAKE MY HEART
TTITLE7=GRANDMA’S HOUSE
TTITLE8=WILD, WILD WORLD
TTITLE9=SOMEDAY ONE DAY
TTITLE10=DREAMY DOLL
TTITLE11=HONEYSUCKLE ROSE
TTITLE12=THE TWIST - MOTHER’S CLUB TWIST
TTITLE13=SHAKE THE HAND OF A FOOL
TTITLE14=BLUE SKIES
TTITLE15=SWING, DADDY SWING
TTITLE16=LONELY NIGHTS
TTITLE17=LUCKY JOHNNY
TTITLE18=AM I THE ONE
TTITLE19=CLASS OF 59
TTITLE20=THE BLACKSMITH BLUES
TTITLE21=WHISKERS
EXTD=CD2
EXTT0=
EXTT1=
EXTT2=
EXTT3=
EXTT4=
EXTT5=
EXTT6=
EXTT7=
EXTT8=
EXTT9=
EXTT10=
EXTT11=
EXTT12=
EXTT13=
EXTT14=
EXTT15=
EXTT16=
EXTT17=
EXTT18=
EXTT19=
EXTT20=
EXTT21=
PLAYORDER=
